#!OML:ASF F:\VICON\USERDATA\INSTALL\rory3\rory3.ASF
:FULLY-SPECIFIED
:DEGREES
413
root 2.89991 9.57274 -5.84773 349.064 -46.2809 356.936
lowerback 22.0805 2.09139 -1.05942
upperback 9.12055 2.29173 2.81941
thorax -2.53264 0.915247 3.08625
lowerneck -26.5328 8.18511 -3.82088
upperneck 13.3537 12.292 0.490806
head 8.11514 5.64328 2.46946
rclavicle -9.25343e-014 3.22031e-014
rhumerus -13.7429 11.2804 -78.85
rradius 85.4902
rwrist 40.5942
rhand -24.4692 11.0632
rfingers 7.12502
rthumb 2.02423 -18.9069
lclavicle -9.25343e-014 3.22031e-014
lhumerus -2.2863 -17.0783 88.5264
lradius 69.7374
lwrist -30.4395
lhand -17.6073 9.18945
lfingers 7.12502
lthumb 8.6493 38.9923
rfemur -82.3643 -21.2421 19.0731
rtibia 109.965
rfoot -9.80607 -2.19228
rtoes 4.39083
lfemur -83.9146 17.5486 -17.4525
ltibia 107.782
lfoot -6.44063 -21.8831
ltoes -4.87716
414
root 2.89507 9.5695 -5.8432 349.073 -46.356 356.99
lowerback 22.2455 2.11795 -1.07459
upperback 9.1961 2.31732 2.87247
thorax -2.53687 0.922917 3.14421
lowerneck -26.3396 8.32379 -3.82102
upperneck 13.1451 12.5168 0.210441
head 8.02803 5.72726 2.39013
rclavicle -5.37713e-014 -2.66371e-014
rhumerus -13.7836 10.9805 -79.0538
rradius 86.0096
rwrist 39.7182
rhand -24.2643 10.8795
rfingers 7.12502
rthumb 2.22207 -19.0887
lclavicle -5.37713e-014 -2.66371e-014
lhumerus -2.36839 -17.216 88.594
lradius 70.1463
lwrist -30.3842
lhand -17.9043 9.88999
lfingers 7.12502
lthumb 8.36269 39.7044
rfemur -82.4548 -21.1383 19.0993
rtibia 110.003
rfoot -9.96226 -2.26658
rtoes 4.56865
lfemur -83.9684 17.5856 -17.44
ltibia 107.833
lfoot -6.52994 -21.904
ltoes -4.95158
415
root 2.89321 9.57059 -5.83939 349.068 -46.4481 357.075
lowerback 22.3728 2.18751 -1.06292
upperback 9.25505 2.40451 2.88909
thorax -2.54188 0.9634 3.1329
lowerneck -26.254 8.4322 -3.78703
upperneck 13.1522 12.6755 0.0735673
head 8.02526 5.78923 2.35788
rclavicle -4.76089e-014 6.16232e-014
rhumerus -13.8323 10.5121 -79.2598
rradius 86.3943
rwrist 38.8368
rhand -24.2036 10.8155
rfingers 7.12502
rthumb 2.28068 -19.1521
lclavicle -4.76089e-014 6.16232e-014
lhumerus -2.48933 -17.5629 88.665
lradius 70.4892
lwrist -30.116
lhand -18.4072 10.232
lfingers 7.12502
lthumb 7.8773 40.0652
rfemur -82.509 -21.0289 19.1269
rtibia 109.986
rfoot -10.061 -2.35724
rtoes 4.25285
lfemur -83.9814 17.6194 -17.4656
ltibia 107.86
lfoot -6.57908 -21.8517
ltoes -4.51845
416
root 2.89274 9.57326 -5.83555 349.169 -46.5321 357.072
lowerback 22.4769 2.27583 -0.987239
upperback 9.28605 2.53266 2.93435
thorax -2.56696 1.02629 3.10562
lowerneck -26.2794 8.54049 -3.765
upperneck 13.3592 12.8302 0.0541892
head 8.0989 5.85308 2.37834
rclavicle -5.37713e-014 -2.3059e-014
rhumerus -13.9843 9.94914 -79.418
rradius 86.7821
rwrist 38.1866
rhand -24.1031 11.0408
rfingers 7.12502
rthumb 2.37777 -18.9257
lclavicle -5.37713e-014 -2.3059e-014
lhumerus -2.60281 -17.9944 88.7766
lradius 70.7945
lwrist -29.823
lhand -18.8526 10.6238
lfingers 7.12502
lthumb 7.44744 40.4727
rfemur -82.5915 -20.9447 19.2179
rtibia 109.959
rfoot -10.1567 -2.40956
rtoes 4.29674
lfemur -84.0313 17.6014 -17.4194
ltibia 107.867
lfoot -6.55108 -21.7812
ltoes -4.17285
417
root 2.89049 9.57318 -5.83223 349.29 -46.5601 357.068
lowerback 22.6155 2.30358 -0.901305
upperback 9.29943 2.5848 2.97059
thorax -2.62252 1.05231 3.0803
lowerneck -26.2304 8.70969 -3.6543
upperneck 13.437 13.0603 -0.136203
head 8.13386 5.94289 2.33204
rclavicle 8.15017e-014 1.86858e-014
rhumerus -14.1226 9.3586 -79.5976
rradius 87.2191
rwrist 38.016
rhand -23.6345 11.5293
rfingers 7.12502
rthumb 2.83032 -18.4317
lclavicle 8.15017e-014 1.86858e-014
lhumerus -2.71858 -18.1913 88.8579
lradius 71.1363
lwrist -29.6555
lhand -19.013 11.067
lfingers 7.12502
lthumb 7.29263 40.9213
rfemur -82.7097 -20.8939 19.2948
rtibia 109.956
rfoot -10.233 -2.48203
rtoes 4.06522
lfemur -84.1363 17.5468 -17.4026
ltibia 107.887
lfoot -6.55285 -21.6886
ltoes -4.27611
418
root 2.88732 9.57052 -5.82866 349.239 -46.5054 357.271
lowerback 22.7863 2.27046 -0.962153
upperback 9.30641 2.52624 2.95992
thorax -2.69774 1.02143 3.11497
lowerneck -26.0145 8.88403 -3.58875
upperneck 13.3217 13.306 -0.374468
head 8.07766 6.04269 2.26289
rclavicle -5.96354e-016 -2.62396e-014
rhumerus -14.2291 8.907 -79.7711
rradius 87.6383
rwrist 38.0082
rhand -23.0091 12.1397
rfingers 7.12502
rthumb 3.43428 -17.8124
lclavicle -5.96354e-016 -2.62396e-014
lhumerus -2.89868 -18.0717 88.9668
lradius 71.4722
lwrist -29.6129
lhand -18.9113 11.3829
lfingers 7.12502
lthumb 7.3908 41.2338
rfemur -82.8604 -20.934 19.2001
rtibia 109.996
rfoot -10.2737 -2.57284
rtoes 2.87581
lfemur -84.232 17.4496 -17.579
ltibia 107.911
lfoot -6.6353 -21.606
ltoes -4.60555
419
root 2.88392 9.57111 -5.82397 349.22 -46.4277 357.459
lowerback 22.9042 2.24177 -1.05683
upperback 9.2827 2.46953 2.95457
thorax -2.7817 0.992205 3.17506
lowerneck -25.6943 9.06174 -3.51676
upperneck 13.2461 13.5304 -0.500417
head 8.01103 6.1468 2.2229
rclavicle -4.39314e-014 3.06128e-014
rhumerus -14.4052 8.52556 -79.9477
rradius 87.983
rwrist 37.9444
rhand -22.6425 12.7945
rfingers 7.12502
rthumb 3.78834 -17.1516
lclavicle -4.39314e-014 3.06128e-014
lhumerus -3.18193 -18.015 89.0522
lradius 71.8014
lwrist -29.3725
lhand -18.9426 11.4892
lfingers 7.12502
lthumb 7.36054 41.3411
rfemur -83.001 -20.9667 19.065
rtibia 110.044
rfoot -10.3606 -2.6009
rtoes 2.52704
lfemur -84.3263 17.3359 -17.7807
ltibia 107.928
lfoot -6.83816 -21.5104
ltoes -5.3685
420
root 2.88052 9.57216 -5.81777 349.345 -46.404 357.505
lowerback 22.9033 2.24206 -1.03124
upperback 9.31526 2.47339 2.96469
thorax -2.7454 0.993184 3.17087
lowerneck -25.814 9.25286 -3.54839
upperneck 13.5605 13.7923 -0.350015
head 8.11672 6.27223 2.32868
rclavicle 2.52457e-014 0
rhumerus -14.4836 8.00172 -80.1101
rradius 88.3638
rwrist 38.1478
rhand -22.3422 13.0977
rfingers 7.12502
rthumb 4.07828 -16.843
lclavicle 2.52457e-014 0
lhumerus -3.31661 -18.0686 89.0394
lradius 72.1963
lwrist -28.9676
lhand -18.99 11.4962
lfingers 7.12502
lthumb 7.31483 41.3498
rfemur -83.1578 -20.9131 19.0707
rtibia 110.069
rfoot -10.4773 -2.70024
rtoes 2.16675
lfemur -84.4903 17.259 -17.8835
ltibia 107.946
lfoot -6.91953 -21.3637
ltoes -5.54734
421
root 2.8793 9.57415 -5.81367 349.439 -46.3693 357.546
lowerback 22.9111 2.22643 -0.969086
upperback 9.38142 2.46346 3.0174
thorax -2.67627 0.985833 3.19557
lowerneck -26.1151 9.39197 -3.7989
upperneck 14.0103 14.0538 -0.0967667
head 8.27376 6.38905 2.5138
rclavicle 2.44505e-014 -8.34896e-015
rhumerus -14.4654 7.55756 -80.1385
rradius 88.7179
rwrist 38.5436
rhand -22.205 13.0412
rfingers 7.12502
rthumb 4.21078 -16.8969
lclavicle 2.44505e-014 -8.34896e-015
lhumerus -3.38421 -17.9934 89.127
lradius 72.5493
lwrist -28.7476
lhand -19.0599 11.4388
lfingers 7.12502
lthumb 7.24734 41.2947
rfemur -83.2605 -20.8986 19.0606
rtibia 110.062
rfoot -10.5184 -2.7587
rtoes 1.98678
lfemur -84.6208 17.1298 -17.9465
ltibia 107.956
lfoot -6.97056 -21.1879
ltoes -5.72168
422
root 2.87961 9.58107 -5.81262 349.452 -46.3203 357.675
lowerback 22.9897 2.19838 -0.989739
upperback 9.39969 2.42278 3.06955
thorax -2.69536 0.963219 3.27289
lowerneck -26.0173 9.52513 -3.8965
upperneck 14.0739 14.2843 -0.174683
head 8.27405 6.48247 2.53011
rclavicle -1.2921e-014 1.59028e-015
rhumerus -14.5084 7.30626 -80.1464
rradius 89.0009
rwrist 38.7865
rhand -22.2504 12.993
rfingers 7.12502
rthumb 4.16702 -16.946
lclavicle -1.2921e-014 1.59028e-015
lhumerus -3.56671 -17.7533 89.3476
lradius 72.8325
lwrist -28.7512
lhand -19.0227 11.2991
lfingers 7.12502
lthumb 7.28323 41.1537
rfemur -83.3262 -20.9109 18.9664
rtibia 110.03
rfoot -10.5503 -2.76823
rtoes 2.18978
lfemur -84.647 16.9294 -18.0373
ltibia 107.929
lfoot -7.15067 -20.9794
ltoes -6.28591
423
root 2.87696 9.58464 -5.81083 349.576 -46.3311 357.666
lowerback 23.1002 2.21669 -0.993172
upperback 9.34831 2.45264 3.1742
thorax -2.81233 0.97761 3.37798
lowerneck -25.5618 9.68739 -3.79992
upperneck 13.8894 14.5042 -0.482674
head 8.16654 6.57131 2.41476
rclavicle 9.34288e-015 -3.49861e-014
rhumerus -14.7328 7.09947 -80.0883
rradius 89.307
rwrist 38.6544
rhand -22.3296 13.2335
rfingers 7.12502
rthumb 4.09047 -16.707
lclavicle 9.34288e-015 -3.49861e-014
lhumerus -3.90377 -17.587 89.6047
lradius 73.1167
lwrist -28.6584
lhand -19.0487 10.977
lfingers 7.12502
lthumb 7.25813 40.8325
rfemur -83.4094 -20.7755 18.9784
rtibia 110
rfoot -10.5781 -2.90957
rtoes 1.56159
lfemur -84.7287 16.8202 -18.0204
ltibia 107.931
lfoot -7.2068 -20.8279
ltoes -6.45688
